<?xml version="1.0" standalone="no"?>
<!DOCTYPE svg PUBLIC "-//W3C//DTD SVG 20010904//EN"
 "http://www.w3.org/TR/2001/REC-SVG-20010904/DTD/svg10.dtd">
<svg version="1.0" xmlns="http://www.w3.org/2000/svg"
 width="758.000000pt" height="758.000000pt" viewBox="0 0 758.000000 758.000000"
 preserveAspectRatio="xMidYMid meet">
<metadata>
Created by potrace 1.11, written by Peter Selinger 2001-2013
</metadata>
<g transform="translate(0.000000,758.000000) scale(0.100000,-0.100000)"
fill="#000000" stroke="none">
<path d="M0 3785 l0 -2835 3790 0 3790 0 0 2835 0 2835 -3790 0 -3790 0 0
-2835z m5713 2139 c89 -4 111 -13 132 -55 20 -39 15 -53 -41 -113 -25 -28 -50
-59 -55 -70 -5 -12 -25 -41 -44 -66 -35 -46 -85 -138 -85 -158 0 -6 -11 -23
-24 -39 -25 -30 -35 -81 -45 -243 -5 -86 -4 -100 17 -143 12 -26 20 -51 18
-56 -3 -5 6 -37 19 -72 14 -34 25 -78 25 -96 0 -18 5 -64 12 -103 10 -59 10
-74 -4 -102 -19 -42 -122 -98 -178 -98 -32 0 -41 5 -64 40 -30 45 -32 66 -11
133 11 39 12 59 4 99 -6 29 -9 85 -7 126 3 41 0 102 -7 136 -20 105 -106 243
-185 297 -21 14 -60 45 -85 67 -26 23 -72 58 -101 77 -30 20 -54 40 -54 44 0
5 -21 15 -46 22 -30 9 -56 26 -73 46 -21 25 -39 35 -76 42 -27 5 -51 14 -53
20 -2 6 -13 11 -25 11 -29 0 -152 38 -218 67 -41 18 -70 25 -108 23 -66 -3
-122 -3 -547 0 -332 2 -428 -2 -438 -19 -15 -23 -26 -166 -31 -396 -4 -143
-10 -287 -15 -320 -5 -33 -12 -130 -15 -215 -3 -85 -11 -184 -17 -220 -6 -36
-12 -112 -14 -170 -7 -209 -13 -286 -28 -358 -8 -40 -13 -78 -10 -85 6 -16 62
-51 89 -55 70 -12 348 -17 570 -9 251 8 363 20 377 41 3 5 12 48 18 95 6 47
18 124 27 170 8 46 12 92 10 102 -8 30 37 59 90 59 43 0 45 -1 65 -46 l20 -47
-26 -66 c-28 -73 -53 -287 -43 -364 3 -23 2 -59 -2 -79 -6 -23 -4 -54 5 -87 7
-28 10 -66 7 -85 -3 -22 4 -62 22 -117 49 -153 53 -174 39 -226 -7 -25 -88
-49 -130 -39 -36 9 -64 78 -74 186 -5 48 -13 97 -19 108 -5 10 -13 67 -17 125
-5 83 -10 107 -23 113 -15 6 -177 24 -231 25 -14 0 -50 -4 -80 -10 -36 -7
-165 -9 -380 -6 l-326 5 -2 -168 c-5 -309 -5 -396 3 -657 4 -155 12 -268 18
-280 12 -22 24 -89 37 -210 4 -44 13 -100 19 -125 5 -25 10 -64 11 -86 0 -76
30 -123 160 -251 l85 -84 75 5 c41 3 90 6 108 6 19 0 54 9 79 20 56 25 58 25
92 1 20 -14 31 -35 40 -74 l13 -54 -38 -53 -38 -53 -126 6 c-79 4 -145 13
-176 23 -41 15 -86 17 -279 17 -144 -1 -241 -6 -259 -13 -38 -14 -272 -15
-326 0 -22 6 -51 8 -62 4 -12 -3 -64 -8 -117 -9 -117 -4 -211 -17 -271 -40
-94 -35 -235 -54 -375 -50 -55 1 -105 -2 -111 -7 -18 -14 -54 23 -60 63 -5 29
-2 41 16 59 14 14 29 20 42 17 11 -3 44 1 75 9 30 8 58 12 63 9 5 -3 21 0 37
7 15 6 57 15 93 19 118 13 154 21 222 46 53 21 73 34 93 64 14 21 25 41 25 44
0 2 11 28 24 57 35 77 46 117 45 169 -1 26 2 53 7 60 4 8 7 40 6 72 -2 52 9
116 38 212 5 17 12 71 15 120 4 50 11 113 16 140 16 87 13 793 -5 1000 -2 28
-9 106 -15 175 -5 69 -15 177 -20 240 -6 63 -11 201 -11 305 -1 105 -2 204 -2
220 -1 17 2 140 7 275 12 369 10 687 -6 729 -9 23 -13 23 -77 18 -37 -3 -80
-9 -97 -12 -16 -3 -82 -11 -145 -16 -120 -10 -128 -11 -197 -23 -62 -11 -99 0
-113 34 -9 23 -9 34 4 59 9 17 22 32 29 32 6 1 57 2 112 4 55 1 136 7 180 13
44 7 98 14 120 16 119 12 207 26 225 36 14 7 32 7 65 -1 25 -6 71 -9 103 -6
31 3 104 -2 162 -10 116 -17 324 -13 343 6 8 8 17 5 33 -10 19 -17 30 -20 61
-14 21 4 58 6 83 6 24 0 47 4 50 8 3 5 35 6 73 2 37 -4 73 -4 80 1 14 9 611 7
647 -2 14 -4 52 -1 85 7 45 11 65 11 86 2 15 -6 33 -8 40 -3 7 4 168 8 358 10
396 3 671 11 751 23 30 5 62 6 70 4 8 -3 50 -7 93 -9z"/>
</g>
</svg>
